<svg width="190" height="29" viewBox="0 0 190 29" fill="none" xmlns="http://www.w3.org/2000/svg">
<path fill-rule="evenodd" clip-rule="evenodd" d="M12.9707 0C5.71122 0.577001 0 6.65091 0 14.0587C0 21.8479 6.31439 28.1623 14.1036 28.1623C20.1174 28.1623 25.2521 24.3983 27.2804 19.0977H12.9707V0ZM28.1843 14.869C28.1995 14.6008 28.2072 14.3307 28.2072 14.0587C28.2072 7.68581 23.9802 2.30014 18.177 0.552331V14.869H28.1843Z" fill="#119C59"/>
<path d="M18.0493 14.9567V0.0327148C18.0493 0.0327148 23.4056 1.65049 26.2201 6.42294C29.0346 11.1954 28.4741 14.9567 28.4741 14.9567H18.0493Z" fill="#25282B"/>
<path d="M44.3589 3.9292H48.1903V21.3178H58.9771V24.5597H44.3589V3.9292Z" fill="#119C59"/>
<path d="M76.3649 16.7791C76.3649 17.0345 76.3452 17.398 76.3059 17.8695H63.9571C64.1732 19.0288 64.7332 19.9522 65.637 20.6399C66.5605 21.308 67.7001 21.642 69.0558 21.642C70.7848 21.642 72.2093 21.0722 73.3292 19.9326L75.3039 22.202C74.5965 23.0468 73.7026 23.6854 72.6219 24.1177C71.5413 24.5499 70.3231 24.766 68.9674 24.766C67.2383 24.766 65.7156 24.4222 64.3992 23.7345C63.0827 23.0468 62.061 22.0939 61.3341 20.8757C60.6267 19.6379 60.2731 18.2429 60.2731 16.6907C60.2731 15.1581 60.6169 13.7827 61.3046 12.5646C62.0119 11.3267 62.9845 10.364 64.2223 9.67628C65.4602 8.98859 66.8552 8.64475 68.4074 8.64475C69.9399 8.64475 71.3055 8.98859 72.504 9.67628C73.7222 10.3443 74.6653 11.2972 75.3333 12.5351C76.021 13.7533 76.3649 15.1679 76.3649 16.7791ZM68.4074 11.592C67.2285 11.592 66.2264 11.9456 65.4012 12.653C64.5956 13.3407 64.1044 14.2641 63.9276 15.4234H72.8577C72.7005 14.2838 72.2191 13.3603 71.4135 12.653C70.608 11.9456 69.6059 11.592 68.4074 11.592Z" fill="#119C59"/>
<path d="M89.4297 23.705C88.9974 24.0587 88.4669 24.324 87.8382 24.5008C87.2291 24.6776 86.5807 24.766 85.893 24.766C84.164 24.766 82.8279 24.3141 81.8848 23.4103C80.9417 22.5065 80.4701 21.1901 80.4701 19.461V11.8867H77.8766V8.93947H80.4701V5.34387H84.1542V8.93947H88.3687V11.8867H84.1542V19.3726C84.1542 20.1389 84.3408 20.7284 84.7141 21.141C85.0874 21.5339 85.6278 21.7304 86.3351 21.7304C87.1603 21.7304 87.848 21.5143 88.3982 21.082L89.4297 23.705Z" fill="#119C59"/>
<path d="M101.612 23.705C101.18 24.0587 100.649 24.324 100.021 24.5008C99.4116 24.6776 98.7632 24.766 98.0755 24.766C96.3465 24.766 95.0104 24.3141 94.0673 23.4103C93.1242 22.5065 92.6526 21.1901 92.6526 19.461V11.8867H90.0591V8.93947H92.6526V5.34387H96.3366V8.93947H100.551V11.8867H96.3366V19.3726C96.3366 20.1389 96.5233 20.7284 96.8966 21.141C97.2699 21.5339 97.8103 21.7304 98.5176 21.7304C99.3428 21.7304 100.03 21.5143 100.581 21.082L101.612 23.705Z" fill="#119C59"/>
<path d="M118.985 16.7791C118.985 17.0345 118.966 17.398 118.926 17.8695H106.577C106.794 19.0288 107.354 19.9522 108.257 20.6399C109.181 21.308 110.32 21.642 111.676 21.642C113.405 21.642 114.83 21.0722 115.95 19.9326L117.924 22.202C117.217 23.0468 116.323 23.6854 115.242 24.1177C114.162 24.5499 112.943 24.766 111.588 24.766C109.859 24.766 108.336 24.4222 107.019 23.7345C105.703 23.0468 104.681 22.0939 103.954 20.8757C103.247 19.6379 102.893 18.2429 102.893 16.6907C102.893 15.1581 103.237 13.7827 103.925 12.5646C104.632 11.3267 105.605 10.364 106.843 9.67628C108.08 8.98859 109.476 8.64475 111.028 8.64475C112.56 8.64475 113.926 8.98859 115.124 9.67628C116.343 10.3443 117.286 11.2972 117.954 12.5351C118.641 13.7533 118.985 15.1679 118.985 16.7791ZM111.028 11.592C109.849 11.592 108.847 11.9456 108.022 12.653C107.216 13.3407 106.725 14.2641 106.548 15.4234H115.478C115.321 14.2838 114.839 13.3603 114.034 12.653C113.228 11.9456 112.226 11.592 111.028 11.592Z" fill="#119C59"/>
<path d="M126.097 11.1204C127.158 9.46997 129.024 8.64475 131.696 8.64475V12.1519C131.382 12.093 131.097 12.0635 130.842 12.0635C129.407 12.0635 128.287 12.486 127.482 13.3308C126.676 14.1561 126.273 15.3546 126.273 16.9264V24.5597H122.589V8.82158H126.097V11.1204Z" fill="#119C59"/>
<path d="M149.715 13.8319C150.855 14.2052 151.758 14.8339 152.426 15.7181C153.094 16.5826 153.429 17.6632 153.429 18.96C153.429 20.748 152.741 22.1332 151.365 23.1156C149.99 24.0784 147.986 24.5597 145.353 24.5597H135.097V3.9292H144.764C147.2 3.9292 149.076 4.41058 150.393 5.37334C151.709 6.31645 152.368 7.62305 152.368 9.29314C152.368 10.3148 152.132 11.2187 151.66 12.0046C151.189 12.7905 150.54 13.3996 149.715 13.8319ZM138.928 6.93536V12.6235H144.351C145.687 12.6235 146.709 12.3877 147.416 11.9162C148.143 11.425 148.507 10.7176 148.507 9.79417C148.507 8.85106 148.143 8.14372 147.416 7.67217C146.709 7.18096 145.687 6.93536 144.351 6.93536H138.928ZM145.117 21.5536C148.084 21.5536 149.568 20.5613 149.568 18.5769C149.568 16.5924 148.084 15.6002 145.117 15.6002H138.928V21.5536H145.117Z" fill="#119C59"/>
<path d="M164.303 24.766C162.711 24.766 161.277 24.4222 160 23.7345C158.723 23.0468 157.721 22.0939 156.994 20.8757C156.286 19.6379 155.933 18.2429 155.933 16.6907C155.933 15.1385 156.286 13.7533 156.994 12.5351C157.721 11.3169 158.723 10.364 160 9.67628C161.277 8.98859 162.711 8.64475 164.303 8.64475C165.914 8.64475 167.358 8.98859 168.635 9.67628C169.912 10.364 170.904 11.3169 171.612 12.5351C172.339 13.7533 172.702 15.1385 172.702 16.6907C172.702 18.2429 172.339 19.6379 171.612 20.8757C170.904 22.0939 169.912 23.0468 168.635 23.7345C167.358 24.4222 165.914 24.766 164.303 24.766ZM164.303 21.6125C165.658 21.6125 166.778 21.1606 167.663 20.2568C168.547 19.353 168.989 18.1643 168.989 16.6907C168.989 15.2171 168.547 14.0283 167.663 13.1245C166.778 12.2207 165.658 11.7688 164.303 11.7688C162.947 11.7688 161.827 12.2207 160.943 13.1245C160.078 14.0283 159.646 15.2171 159.646 16.6907C159.646 18.1643 160.078 19.353 160.943 20.2568C161.827 21.1606 162.947 21.6125 164.303 21.6125Z" fill="#119C59"/>
<path d="M185.793 24.5597L181.755 19.1074L177.688 24.5597H173.621L179.751 16.5728L173.886 8.82158H177.983L181.844 13.9792L185.705 8.82158H189.683L183.789 16.5138L189.949 24.5597H185.793Z" fill="#119C59"/>
</svg>
